# xmcd
#
# Track frame offsets: 
#        150
#        4088
#        16677
#        31950
#        51535
#        70754
#        85525
#        107902
#        127770
#        140106
#        170489
#        196951
#        210322
#
# Disc length: 3201 seconds
#
# Revision: 1
# Processed by: cddbd v1.5.2PL0 Copyright (c) Steve Scherf et al.
# Submitted via: ExactAudioCopy v1.1
#
DISCID=a60c7f0d
DTITLE=Various Artist - Goin' Down South Blues Sampler
DYEAR=2001
DGENRE=Blues
TTITLE0=Jason Freeman - Memphis Round-Up
TTITLE1=David Evans and Jobie Kilzer - Poor Boy Long Way From Home
TTITLE2=R.L.Burnside - Goin' Down South
TTITLE3=Daddy Mack Blues Band - Razor Blade
TTITLE4=Billy Gibson - Darling, Please Come Home
TTITLE5=Last Chance Jug Band - Last Chance Blues
TTITLE6=Junkyardmen - What Is Your Life
TTITLE7=Sandy Carroll - Just As I Am
TTITLE8=Lorette Velvette - Get Right Church
TTITLE9=Junkyardmen - I Ain't Found Out Yet
TTITLE10=Bobby Little - Midnight Hour
TTITLE11=McCarty Hite Blues Project - Shake'Em On Down
TTITLE12=Blind  Mississippi Morris - Secondhand Store
EXTD=Inside Sounds
EXTT0=
EXTT1=
EXTT2=
EXTT3=
EXTT4=
EXTT5=
EXTT6=
EXTT7=
EXTT8=
EXTT9=
EXTT10=
EXTT11=
EXTT12=
PLAYORDER=
